<svg id="erX2gNMKPy51" xmlns="http://www.w3.org/2000/svg" xmlns:xlink="http://www.w3.org/1999/xlink" viewBox="0 0 100 100" shape-rendering="geometricPrecision" text-rendering="geometricPrecision"><defs><filter id="erX2gNMKPy53-filter" x="-150%" width="400%" y="-150%" height="400%"><feGaussianBlur id="erX2gNMKPy53-filter-blur-0" stdDeviation="1,1" result="result"/></filter><linearGradient id="erX2gNMKPy54-fill" x1="0.488571" y1="0" x2="0.5" y2="1" spreadMethod="pad" gradientUnits="objectBoundingBox" gradientTransform="translate(0 0)"><stop id="erX2gNMKPy54-fill-0" offset="0%" stop-color="#c7bb7a"/><stop id="erX2gNMKPy54-fill-1" offset="21%" stop-color="#b3a65e"/><stop id="erX2gNMKPy54-fill-2" offset="39%" stop-color="#ded08d"/><stop id="erX2gNMKPy54-fill-3" offset="47%" stop-color="#fff9dc"/><stop id="erX2gNMKPy54-fill-4" offset="65%" stop-color="#6e7332"/><stop id="erX2gNMKPy54-fill-5" offset="73%" stop-color="#938853"/><stop id="erX2gNMKPy54-fill-6" offset="78%" stop-color="#85814b"/><stop id="erX2gNMKPy54-fill-7" offset="91.8519%" stop-color="#3c4023"/></linearGradient><filter id="erX2gNMKPy55-filter" x="-150%" width="400%" y="-150%" height="400%"><feGaussianBlur id="erX2gNMKPy55-filter-blur-0" stdDeviation="1,0" result="result"/></filter><filter id="erX2gNMKPy56-filter" x="-150%" width="400%" y="-150%" height="400%"><feGaussianBlur id="erX2gNMKPy56-filter-blur-0" stdDeviation="1,0" result="result"/></filter><filter id="erX2gNMKPy58-filter" x="-150%" width="400%" y="-150%" height="400%"><feGaussianBlur id="erX2gNMKPy58-filter-blur-0" stdDeviation="1,1" result="result"/></filter><linearGradient id="erX2gNMKPy59-fill" x1="0.481347" y1="-0.226341" x2="0.56134" y2="1.477283" spreadMethod="pad" gradientUnits="objectBoundingBox" gradientTransform="translate(0 0)"><stop id="erX2gNMKPy59-fill-0" offset="0%" stop-color="#262626"/><stop id="erX2gNMKPy59-fill-1" offset="13%" stop-color="#5b594a"/><stop id="erX2gNMKPy59-fill-2" offset="21%" stop-color="#b3a65e"/><stop id="erX2gNMKPy59-fill-3" offset="34.1571%" stop-color="#ded08d"/><stop id="erX2gNMKPy59-fill-4" offset="38.1119%" stop-color="#fff9dc"/><stop id="erX2gNMKPy59-fill-5" offset="52.0505%" stop-color="#585c26"/><stop id="erX2gNMKPy59-fill-6" offset="63.3247%" stop-color="#938853"/><stop id="erX2gNMKPy59-fill-7" offset="78%" stop-color="#343219"/><stop id="erX2gNMKPy59-fill-8" offset="91.8519%" stop-color="#3c4023"/></linearGradient><filter id="erX2gNMKPy510-filter" x="-150%" width="400%" y="-150%" height="400%"><feGaussianBlur id="erX2gNMKPy510-filter-blur-0" stdDeviation="1,0" result="result"/></filter><filter id="erX2gNMKPy511-filter" x="-150%" width="400%" y="-150%" height="400%"><feGaussianBlur id="erX2gNMKPy511-filter-blur-0" stdDeviation="1,0" result="result"/></filter><filter id="erX2gNMKPy512-filter" x="-150%" width="400%" y="-150%" height="400%"><feGaussianBlur id="erX2gNMKPy512-filter-blur-0" stdDeviation="1,0" result="result"/></filter><filter id="erX2gNMKPy514-filter" x="-150%" width="400%" y="-150%" height="400%"><feGaussianBlur id="erX2gNMKPy514-filter-blur-0" stdDeviation="1,1" result="result"/></filter><linearGradient id="erX2gNMKPy515-fill" x1="0.488571" y1="0" x2="0.5" y2="1" spreadMethod="pad" gradientUnits="objectBoundingBox" gradientTransform="translate(0 0)"><stop id="erX2gNMKPy515-fill-0" offset="0%" stop-color="#c7bb7a"/><stop id="erX2gNMKPy515-fill-1" offset="21%" stop-color="#b3a65e"/><stop id="erX2gNMKPy515-fill-2" offset="39%" stop-color="#ded08d"/><stop id="erX2gNMKPy515-fill-3" offset="47%" stop-color="#fff9dc"/><stop id="erX2gNMKPy515-fill-4" offset="65%" stop-color="#6e7332"/><stop id="erX2gNMKPy515-fill-5" offset="73%" stop-color="#938853"/><stop id="erX2gNMKPy515-fill-6" offset="78%" stop-color="#85814b"/><stop id="erX2gNMKPy515-fill-7" offset="91.8519%" stop-color="#3c4023"/></linearGradient><filter id="erX2gNMKPy516-filter" x="-150%" width="400%" y="-150%" height="400%"><feGaussianBlur id="erX2gNMKPy516-filter-blur-0" stdDeviation="1,0" result="result"/></filter><filter id="erX2gNMKPy517-filter" x="-150%" width="400%" y="-150%" height="400%"><feGaussianBlur id="erX2gNMKPy517-filter-blur-0" stdDeviation="1,0" result="result"/></filter><filter id="erX2gNMKPy518-filter" x="-150%" width="400%" y="-150%" height="400%"><feGaussianBlur id="erX2gNMKPy518-filter-blur-0" stdDeviation="1,0" result="result"/></filter><filter id="erX2gNMKPy519-filter" x="-150%" width="400%" y="-150%" height="400%"><feGaussianBlur id="erX2gNMKPy519-filter-blur-0" stdDeviation="1,0" result="result"/></filter></defs><g transform="matrix(.758131 0.652103-.652103 0.758131 47.063377-19.524669)"><ellipse rx="25.454546" ry="4.145455" transform="translate(50 49)" opacity="0.72" filter="url(#erX2gNMKPy53-filter)" stroke-width="0"/><ellipse rx="25.454546" ry="4.145455" transform="translate(49.932276 45.885519)" fill="url(#erX2gNMKPy54-fill)" stroke-width="0"/><path d="M-23.199081,-0.931693c0-1.144736,21.150607-1.141034,23.199081-1.141034s8.534522,1.308138,8.534522,2.452874-3.66761,2.115574-10.393101.046192-21.340502-.213296-21.340502-1.358032Z" transform="translate(61.190463 44.910294)" opacity="0.65" filter="url(#erX2gNMKPy55-filter)" fill="#fff" stroke-width="0"/><ellipse rx="3.709091" ry="2.072727" transform="translate(61.434321 44.838387)" opacity="0.65" filter="url(#erX2gNMKPy56-filter)" fill="#fff" stroke-width="0"/></g><g transform="matrix(.80888-.587974 0.587974 0.80888-5.991122 49.707896)"><ellipse rx="25.454546" ry="4.145455" transform="translate(48.511921 35.297841)" opacity="0.89" filter="url(#erX2gNMKPy58-filter)" stroke-width="0"/><ellipse rx="25.454546" ry="4.145455" transform="translate(50.581819 33.381819)" fill="url(#erX2gNMKPy59-fill)" stroke-width="0"/><path d="M-0.499145,-1.77876c-.421143-.131054,1.523991-.117089,2.100504-.259438s9.375056,1.166843,10.610289,1.572059s4.83955,2.838295-1.885941.768913-10.638391-2.519508-10.824852-2.081534Z" transform="translate(61.283056 32.132517)" opacity="0.65" filter="url(#erX2gNMKPy510-filter)" fill="#fff" stroke-width="0"/><path d="M-4.803013,0.764301c0-1.144736,7.732987-3.968515,10.194267-4.30405s-1.932922,1.949741-2.620262,2.512007-2.473018,1.005763-3.57582,1.51328-3.998185,1.423499-3.998185.278763Z" transform="matrix(.669989 0.32095-.367497 0.767155 69.129148 33.620555)" opacity="0.75" filter="url(#erX2gNMKPy511-filter)" fill="#fff" stroke-width="0"/><path d="M-4.85355,-1.844515c-.676523-.325153,4.908953,3.865545,4.04711-1.717044-.021913-.141941,9.529863,9.90918,12.067102,9.949265.938517.014827-9.849558-5.378579-10.530097-5.136991s-2.613054-1.667266-5.584115-3.09523Z" transform="matrix(.501239-.251805 0.23502 0.467827 59.944334 32.793403)" opacity="0.75" filter="url(#erX2gNMKPy512-filter)" fill="#fff" stroke-width="0"/></g><g transform="matrix(.764585 0.644523-.644523 0.764585 56.615644-29.981218)"><ellipse rx="25.454546" ry="4.145455" transform="translate(50 63)" opacity="0.13" filter="url(#erX2gNMKPy514-filter)" stroke-width="0"/><ellipse rx="25.454546" ry="4.145455" transform="translate(49.398666 60.353447)" fill="url(#erX2gNMKPy515-fill)" stroke-width="0"/><path d="M-32.92845,0.025788c.785744-1.918034,18.296565-3.057816,30.438441-2.514077s16.038667,2.165341,16.062279,2.408157-13.372616-2.79819-29.386124-1.904549c-5.161653.288048-6.509461.2501-17.114596,2.010469Z" transform="translate(58.968241 59.262146)" opacity="0.65" filter="url(#erX2gNMKPy516-filter)" fill="#fff" stroke-width="0"/><path d="M-3.709091,0c0-1.144736,2.601381-.840324,3.709091-2.072727s4.674043,1.557859,3.709091,2.072727-3.607817.801701-3.709091,2.072727-3.709091-.927991-3.709091-2.072727Z" transform="matrix(.408945 0 0 0.536544 41.109303 60.247293)" opacity="0.65" filter="url(#erX2gNMKPy517-filter)" fill="#fff" stroke-width="0"/><path d="M-4.021485,0.929791c0-1.144736,1.597048-2.063401,3.645522-2.063401s3.614293.587625,3.614293,1.732361-1.189856,1.473976-3.23833,1.473976-4.021485.0018-4.021485-1.142936Z" transform="translate(60.003369 59.505654)" opacity="0.65" filter="url(#erX2gNMKPy518-filter)" fill="#fff" stroke-width="0"/><path d="M-4.096751,0.668333c0-1.144736.298949-3.507689,4.632596-1.529619s31.769049.513352,32.064648.963918-30.463519.923364-32.511993.923364-4.185251.787073-4.185251-.357663Z" transform="matrix(.571667 0 0 0.717376 49.043458 60.086081)" opacity="0.65" filter="url(#erX2gNMKPy519-filter)" fill="#fff" stroke-width="0"/></g></svg>
